
        <svg xmlns="http://www.w3.org/2000/svg" xmlns:xlink="http://www.w3.org/1999/xlink" version="1.1" width="3192" 
        height="3192" viewBox="0 0 3192 3192">
			
			<g transform="scale(9.6) translate(10, 10)">
				<defs id="SvgjsDefs1754"></defs><g id="SvgjsG1755" featureKey="rootContainer" transform="matrix(3.125,0,0,3.125,0,0)" fill="#e84545"><path xmlns="http://www.w3.org/2000/svg" d="M0 0h100v100H0z"></path></g><g id="SvgjsG1756" featureKey="symbolFeature-0" transform="matrix(0.8000079956853817,0,0,0.8000079956853817,116,68)" fill="#111111"><path xmlns="http://www.w3.org/2000/svg" fill="#111111" d="M72.724,72.729c-0.637,0-1.477,0-2.413,0l8.146-10.028c7.231-2.402,12.45-9.212,12.45-17.248  c0-10.041-8.14-18.178-18.182-18.178c-3.64,0-7.008,1.091-9.849,2.932C60.078,18.125,49.298,9.092,36.363,9.092  c-15.061,0-27.271,12.21-27.271,27.275c0,12.378,8.256,22.817,19.557,26.147L25.582,71.1C10.762,66.505,0,52.694,0,36.365  C0,16.284,16.281,0,36.363,0c13.646,0,25.522,7.528,31.742,18.648c1.509-0.26,3.041-0.466,4.621-0.466  c15.062,0,27.273,12.208,27.273,27.272C99.999,60.517,87.786,72.729,72.724,72.729z"></path><polygon xmlns="http://www.w3.org/2000/svg" fill="#111111" points="45.453,40.908 68.178,40.908 54.542,63.638 70.45,63.638 40.907,100 49.089,72.729 34.088,72.729   "></polygon></g><g id="SvgjsG1757" featureKey="nameFeature-0" transform="matrix(1.3245033112582782,0,0,1.3245033112582782,56,172.05960173954236)" fill="#111111"><path d="M9.32 24.92 l-5.52 0 l0 11.28 l5.56 0 l0 3.8 l-9.36 0 l0 -28.56 l9.36 0 l0 3.8 l-5.56 0 l0 5.88 l5.52 0 l0 3.8 z M17.148 36.24 l5.52 0 l0 3.76 l-9.28 0 l0 -28.72 l3.76 0 l0 24.96 z M36.016 24.92 l-5.52 0 l0 11.28 l5.56 0 l0 3.8 l-9.36 0 l0 -28.56 l9.36 0 l0 3.8 l-5.56 0 l0 5.88 l5.52 0 l0 3.8 z M45.443999999999996 39.92 c-2.96 0 -5.36 -2.4 -5.36 -5.36 l0 -17.76 c0 -2.96 2.4 -5.36 5.36 -5.36 s5.36 2.4 5.36 5.36 l0 1.6 l-3.8 0 l0 -1.6 c0 -0.84 -0.72 -1.56 -1.56 -1.56 s-1.56 0.72 -1.56 1.56 l0 17.76 c0 0.84 0.72 1.56 1.56 1.56 s1.56 -0.72 1.56 -1.56 l0 -2.56 l3.8 0 l0 2.56 c0 2.96 -2.4 5.36 -5.36 5.36 z M68.672 11.36 l0 3.84 l-4.76 0 l0 24.84 l-3.84 0 l0 -24.84 l-5.24 0 l0 -3.84 l13.84 0 z M83.45999999999998 40.08 l-4.08 0 l-2.2 -6.04 l-0.88 0 l0 6.04 l-3.8 0 l0 -28.64 l5.96 0 c2.64 0 4.76 2.12 4.76 4.76 l0 13.08 c0 1.72 -0.88 3.2 -2.24 4.04 z M76.29999999999998 15.239999999999998 l0 15 l2.16 0 c0.52 0 0.96 -0.44 0.96 -0.96 l0 -13.08 c0 -0.52 -0.44 -0.96 -0.96 -0.96 l-2.16 0 z M91.28799999999998 11.36 l0 28.48 l-3.8 0 l0 -28.48 l3.8 0 z M100.67599999999999 39.92 c-2.96 0 -5.36 -2.4 -5.36 -5.36 l0 -17.76 c0 -2.96 2.4 -5.36 5.36 -5.36 s5.36 2.4 5.36 5.36 l0 1.6 l-3.8 0 l0 -1.6 c0 -0.84 -0.72 -1.56 -1.56 -1.56 s-1.56 0.72 -1.56 1.56 l0 17.76 c0 0.84 0.72 1.56 1.56 1.56 s1.56 -0.72 1.56 -1.56 l0 -2.56 l3.8 0 l0 2.56 c0 2.96 -2.4 5.36 -5.36 5.36 z M119.38399999999999 24.92 l-5.52 0 l0 11.28 l5.56 0 l0 3.8 l-9.36 0 l0 -28.56 l9.36 0 l0 3.8 l-5.56 0 l0 5.88 l5.52 0 l0 3.8 z M137.612 11.440000000000001 l-5.36 17.36 l0 11.2 l-3.88 0 l0 -11.24 l-4.92 -17.32 l4 0 l2.92 10.28 l3.2 -10.28 l4.04 0 z M150.95999999999998 24.92 l-5.52 0 l0 11.28 l5.56 0 l0 3.8 l-9.36 0 l0 -28.56 l9.36 0 l0 3.8 l-5.56 0 l0 5.88 l5.52 0 l0 3.8 z"></path></g>
			</g>
		</svg>
	